<?xml version="1.0" encoding="UTF-8"?>
<svg id="Layer_2" data-name="Layer 2" xmlns="http://www.w3.org/2000/svg" viewBox="0 0 51.76 77.94">
  <defs>
    <style>
      .cls-1 {
        fill: #192546;
      }

      .cls-2 {
        fill: #29b8ce;
      }
    </style>
  </defs>
  <g id="artwork">
    <g>
      <path class="cls-1" d="M18.57,72.67c-.2,0-.4-.03-.59-.09-5.16-1.66-9.6-4.86-12.85-9.24C1.81,58.87.05,53.56.05,47.99v-22.11C.05,11.64,11.64.05,25.88.05s25.83,11.59,25.83,25.83v22.11c0,1.07-.87,1.93-1.93,1.93s-1.93-.87-1.93-1.93v-22.11c0-12.11-9.85-21.96-21.96-21.96S3.92,13.77,3.92,25.88v22.11c0,4.73,1.49,9.25,4.31,13.05,2.72,3.68,6.61,6.47,10.93,7.86,1.02.33,1.57,1.42,1.25,2.43-.26.82-1.02,1.34-1.84,1.34"/>
      <path class="cls-1" d="M18.57,72.73c-.21,0-.42-.03-.61-.1-5.17-1.67-9.62-4.87-12.88-9.26-3.32-4.48-5.08-9.8-5.08-15.38v-22.11C0,11.61,11.61,0,25.88,0s25.88,11.61,25.88,25.88v22.11c0,1.1-.89,1.99-1.99,1.99s-1.99-.89-1.99-1.99v-22.11c0-12.08-9.83-21.91-21.91-21.91S3.97,13.8,3.97,25.88v22.11c0,4.72,1.49,9.22,4.3,13.02,2.72,3.67,6.59,6.45,10.91,7.84.51.16.92.51,1.16.98.24.47.29,1.01.12,1.52-.26.82-1.02,1.38-1.89,1.38ZM25.88.11C11.67.11.11,11.67.11,25.88v22.11c0,5.56,1.75,10.85,5.06,15.32,3.24,4.37,7.68,7.56,12.82,9.22.19.06.38.09.58.09.82,0,1.54-.52,1.79-1.3.15-.48.11-.99-.12-1.43-.23-.45-.62-.78-1.1-.93-4.34-1.4-8.23-4.2-10.96-7.88-2.82-3.81-4.32-8.33-4.32-13.08v-22.11C3.86,13.74,13.74,3.87,25.88,3.87s22.02,9.88,22.02,22.02v22.11c0,1.04.84,1.88,1.88,1.88s1.88-.84,1.88-1.88v-22.11C51.66,11.67,40.09.11,25.88.11Z"/>
      <path class="cls-2" d="M38.73,57.03c-.53,0-.97-.43-.97-.97v-2.89c0-.98-.79-1.77-1.77-1.77s-1.77.79-1.77,1.77v1.88c0,.53-.43.97-.97.97s-.97-.43-.97-.97v-1.88c0-2.04,1.66-3.7,3.7-3.7s3.7,1.66,3.7,3.7v2.89c0,.53-.43.97-.97.97"/>
      <path class="cls-2" d="M44.2,57.03c-.53,0-.97-.43-.97-.97v-1.96c0-.98-.79-1.77-1.77-1.77s-1.77.79-1.77,1.77v1.88c0,.53-.43.97-.97.97s-.97-.43-.97-.97v-1.88c0-2.04,1.66-3.7,3.7-3.7s3.7,1.66,3.7,3.7v1.96c0,.53-.43.97-.97.97"/>
      <path class="cls-2" d="M38.64,77.94c-6.28,0-12.69-4.25-19.06-12.64-.98-1.29-1.99-1.89-2.88-2.41-1.08-.64-2.21-1.3-2.21-2.97s1.33-4.27,4.18-4.27,5.93,2.67,7.74,4.67v-20.8c0-2.15,1.75-3.91,3.91-3.91,1.14,0,2.15.49,2.84,1.39.71.91,1.06,2.17,1.06,3.74v15.32c0,.53-.43.97-.97.97s-.97-.43-.97-.97v-15.32c0-2.89-1.38-3.2-1.98-3.2-1.09,0-1.97.89-1.97,1.98v23.52c0,.42-.27.79-.68.92-.4.13-.84-.02-1.08-.37-1.18-1.67-4.9-6.01-7.92-6.01-.7,0-2.24.59-2.24,2.33,0,.52.22.7,1.26,1.31.94.55,2.22,1.31,3.44,2.91,5.98,7.88,11.88,11.87,17.52,11.87,4.85,0,10.06-2.17,10.06-6.93v-13.36c0-.98-.79-1.77-1.77-1.77s-1.77.79-1.77,1.77v.34c0,.53-.43.97-.97.97s-.97-.43-.97-.97v-.34c0-2.04,1.66-3.7,3.7-3.7s3.7,1.66,3.7,3.7v13.36c0,6.09-6.22,8.86-12,8.86"/>
      <path class="cls-2" d="M23.42,43.6c-.35,0-.69-.19-.86-.53-.62-1.22-.95-2.58-.95-3.96,0-4.8,3.9-8.7,8.7-8.7s8.7,3.9,8.7,8.7c0,1.39-.32,2.72-.95,3.95-.24.48-.83.66-1.3.42-.48-.24-.66-.82-.42-1.3.49-.96.74-1.99.74-3.08,0-3.73-3.04-6.77-6.77-6.77s-6.77,3.04-6.77,6.77c0,1.08.25,2.12.74,3.08.24.48.05,1.06-.42,1.3-.14.07-.29.11-.44.11"/>
      <path class="cls-2" d="M39.91,46.87c-.19,0-.39-.06-.56-.18-.44-.31-.54-.91-.23-1.35,1.29-1.83,1.98-3.98,1.98-6.23,0-5.95-4.84-10.78-10.78-10.78s-10.78,4.84-10.78,10.78c0,2.25.68,4.4,1.98,6.23.31.44.21,1.04-.23,1.35-.44.31-1.04.21-1.35-.23-1.53-2.15-2.34-4.7-2.34-7.35,0-7.01,5.7-12.72,12.72-12.72s12.72,5.7,12.72,12.72c0,2.65-.81,5.19-2.34,7.35-.19.27-.49.41-.79.41"/>
    </g>
  </g>
</svg>