<?xml version="1.0" encoding="UTF-8"?>
<svg id="Layer_2" data-name="Layer 2" xmlns="http://www.w3.org/2000/svg" viewBox="0 0 73.47 72.57">
  <defs>
    <style>
      .cls-1 {
        fill: #192546;
      }

      .cls-2 {
        fill: #29b8ce;
      }
    </style>
  </defs>
  <g id="artwork">
    <g>
      <path class="cls-2" d="M71.34,34.69c-.99,0-1.83-.76-1.92-1.76-.24-2.65-.8-5.29-1.68-7.83-2.7-7.82-8.2-14.27-15.48-18.18-.94-.5-1.29-1.68-.79-2.62.5-.94,1.68-1.29,2.62-.79,8.14,4.37,14.29,11.59,17.31,20.32.98,2.84,1.61,5.78,1.88,8.75.09,1.06-.69,2-1.75,2.1-.06,0-.12,0-.17,0"/>
      <path class="cls-1" d="M71.48,34.71h0l-10.01-.03c-.53,0-.96-.44-.96-.97,0-.53.43-.96.97-.96h0l10.01.03c.53,0,.96.44.96.97,0,.53-.43.96-.97.96"/>
      <path class="cls-1" d="M71.48,34.76h0l-10.01-.03c-.27,0-.53-.11-.72-.3-.19-.19-.3-.45-.3-.72,0-.56.46-1.02,1.02-1.02l10.01.03c.27,0,.53.11.72.3.19.19.3.45.3.72,0,.56-.46,1.02-1.02,1.02ZM61.48,32.79c-.51,0-.91.41-.92.91,0,.24.09.47.26.65s.4.27.64.27l10.01.03v.05s0-.05,0-.05c.5,0,.91-.41.91-.91,0-.24-.09-.47-.26-.65s-.4-.27-.64-.27l-10.01-.03Z"/>
      <path class="cls-1" d="M36.73,71.54h0c-.53,0-.96-.44-.96-.97l.03-10.01c0-.53.43-.96.97-.96h0c.53,0,.96.44.96.97l-.03,10.01c0,.53-.43.96-.97.96"/>
      <path class="cls-1" d="M36.73,71.59h0c-.27,0-.53-.11-.72-.3-.19-.19-.3-.45-.3-.72l.03-10.01c0-.56.46-1.02,1.02-1.02.28,0,.53.11.72.3.19.19.3.45.3.72l-.03,10.01c0,.56-.46,1.02-1.02,1.02ZM36.77,59.65c-.51,0-.91.41-.92.91l-.03,10.01c0,.24.09.47.26.65s.4.27.64.27v.05s0-.05,0-.05c.5,0,.91-.41.91-.91l.03-10.01c0-.24-.09-.47-.27-.65-.17-.17-.4-.27-.64-.27Z"/>
      <path class="cls-1" d="M13.69,21.07c-.11,0-.22-.03-.32-.09l-6.27-3.62c-.31-.18-.41-.57-.24-.88s.57-.41.88-.24l6.27,3.62c.31.18.41.57.24.88-.12.21-.34.32-.56.32"/>
      <path class="cls-1" d="M13.69,21.12c-.12,0-.24-.03-.35-.09l-6.26-3.62c-.16-.09-.28-.24-.33-.42-.05-.18-.02-.37.07-.53.09-.16.24-.28.42-.32.18-.05.37-.02.53.07l6.27,3.62c.16.09.28.24.33.42.05.18.02.37-.07.53-.12.21-.36.35-.61.35ZM7.43,16.22c-.05,0-.1,0-.15.02-.15.04-.28.14-.36.28-.08.14-.1.3-.06.45.04.15.14.28.28.36l6.27,3.62c.09.05.19.08.3.08.21,0,.41-.11.51-.3.08-.14.1-.3.06-.45-.04-.15-.14-.28-.27-.36l-6.27-3.62c-.09-.05-.19-.08-.29-.08Z"/>
      <path class="cls-1" d="M18.45,66.02c-.11,0-.22-.03-.32-.09-.31-.18-.41-.57-.24-.88l3.63-6.28c.18-.31.57-.41.88-.24.31.18.41.57.24.88l-3.63,6.28c-.12.21-.34.32-.56.32"/>
      <path class="cls-1" d="M18.45,66.07c-.12,0-.24-.03-.35-.09-.16-.09-.28-.24-.33-.42-.05-.18-.02-.37.07-.53l3.63-6.28c.09-.16.24-.28.42-.32.18-.05.37-.02.53.07.33.19.45.62.26.95l-3.63,6.28c-.12.21-.36.35-.61.35ZM22.08,58.5c-.05,0-.1,0-.15.02-.15.04-.28.14-.36.28l-3.63,6.28c-.08.14-.1.3-.06.45.04.15.14.28.28.36.09.05.19.08.29.08.21,0,.41-.11.51-.3l3.63-6.28c.16-.28.06-.64-.22-.81-.09-.05-.19-.08-.29-.08Z"/>
      <path class="cls-1" d="M5.57,52.36c-.22,0-.44-.12-.56-.32-.18-.31-.07-.7.24-.88l6.44-3.72c.31-.18.7-.07.88.24.18.31.07.7-.24.88l-6.44,3.72c-.1.06-.21.09-.32.09"/>
      <path class="cls-1" d="M5.57,52.41c-.25,0-.48-.13-.61-.35-.19-.33-.08-.76.26-.95l6.44-3.72c.16-.1.35-.12.53-.07.18.05.33.16.43.33.19.33.08.76-.26.95l-6.44,3.72c-.11.06-.23.09-.35.09ZM12.01,47.41c-.1,0-.2.03-.29.08l-6.44,3.72c-.28.16-.38.53-.22.81.11.18.3.3.51.3.1,0,.2-.03.29-.08l6.44-3.72c.28-.16.38-.53.22-.81-.08-.14-.21-.24-.36-.28-.05-.01-.1-.02-.15-.02Z"/>
      <path class="cls-2" d="M59.76,21.07c-.22,0-.44-.12-.56-.32-.18-.31-.07-.7.24-.88l6.11-3.53c.31-.18.7-.07.88.23.18.31.07.7-.24.88l-6.11,3.53c-.1.06-.21.09-.32.09"/>
      <path class="cls-1" d="M54.71,65.52c-.22,0-.44-.12-.56-.32l-3.34-5.78c-.18-.31-.07-.7.24-.88.31-.18.7-.07.88.24l3.34,5.78c.18.31.07.7-.24.88-.1.06-.21.09-.32.09"/>
      <path class="cls-1" d="M54.71,65.58c-.25,0-.48-.13-.61-.35l-3.34-5.78c-.09-.16-.12-.35-.07-.53.05-.18.16-.33.33-.43.16-.09.35-.12.53-.07.18.05.33.16.42.33l3.34,5.78c.09.16.12.35.07.53-.05.18-.16.33-.33.42-.11.06-.23.09-.35.09ZM51.37,58.5c-.1,0-.2.03-.29.08-.14.08-.24.21-.28.36-.04.15-.02.31.06.45l3.34,5.78c.11.18.3.3.51.3.1,0,.2-.03.29-.08.14-.08.23-.21.28-.36.04-.15.02-.31-.06-.45l-3.34-5.78c-.08-.14-.2-.23-.36-.28-.05-.01-.1-.02-.15-.02Z"/>
      <path class="cls-1" d="M66.82,51.75c-.11,0-.22-.03-.32-.09l-5.38-3.11c-.31-.18-.41-.57-.24-.88.18-.31.57-.41.88-.23l5.38,3.11c.31.18.41.57.24.88-.12.21-.34.32-.56.32"/>
      <path class="cls-1" d="M66.82,51.8c-.12,0-.24-.03-.35-.09l-5.38-3.11c-.16-.09-.28-.24-.33-.43-.05-.18-.02-.37.07-.53.19-.33.62-.45.95-.25l5.38,3.11c.33.19.45.62.26.95-.12.21-.36.35-.61.35ZM61.44,47.4c-.2,0-.4.11-.51.3-.08.14-.1.29-.06.45.04.15.14.28.28.36l5.38,3.11c.09.05.19.08.29.08.21,0,.41-.11.51-.3.16-.28.07-.64-.22-.81l-5.38-3.11c-.09-.05-.19-.08-.29-.08Z"/>
      <path class="cls-1" d="M73.28,32.77c.02.13.03.25.04.38,1.22,16.55-8.9,31.9-24.6,37.33-3.93,1.36-7.98,2.03-12.02,2.03-5.48,0-10.93-1.24-16-3.71-8.81-4.28-15.43-11.74-18.63-21-2.88-8.31-2.67-17.39.58-25.55C5.87,14.19,11.85,7.51,19.48,3.45c.94-.5,2.11-.14,2.61.8.5.94.14,2.11-.8,2.61-6.83,3.63-12.17,9.6-15.05,16.83-2.91,7.3-3.09,15.42-.52,22.85,2.87,8.28,8.78,14.95,16.67,18.78,7.88,3.83,16.78,4.36,25.07,1.5,14.05-4.86,23.1-18.59,22.01-33.4-.02-.23,0-.46.07-.67h3.75Z"/>
      <path class="cls-1" d="M36.7,72.57c-5.56,0-10.95-1.25-16.02-3.71-8.82-4.29-15.45-11.76-18.66-21.03-2.88-8.33-2.67-17.41.58-25.58C5.82,14.16,11.81,7.47,19.46,3.41c.47-.25,1.01-.3,1.51-.15.51.16.92.5,1.17.97.25.47.3,1.01.15,1.51-.16.51-.5.92-.97,1.17-6.82,3.62-12.15,9.59-15.03,16.8-2.9,7.29-3.09,15.39-.52,22.81,2.86,8.27,8.77,14.93,16.64,18.75,7.87,3.82,16.76,4.35,25.03,1.5,14.02-4.85,23.06-18.56,21.97-33.34-.02-.23,0-.46.07-.69v-.04h3.85v.05c.02.13.04.25.05.39,1.22,16.57-8.91,31.95-24.63,37.39-3.91,1.35-7.96,2.04-12.04,2.04ZM20.39,3.28c-.3,0-.6.07-.88.22C11.88,7.55,5.91,14.22,2.7,22.29c-3.25,8.15-3.45,17.21-.58,25.51,3.2,9.24,9.8,16.69,18.6,20.97,5.06,2.46,10.43,3.7,15.98,3.7,4.07,0,8.11-.68,12-2.03,15.68-5.42,25.78-20.75,24.56-37.28,0-.12-.02-.22-.03-.34h-3.66c-.05.2-.07.41-.05.61,1.09,14.83-7.97,28.58-22.04,33.45-8.29,2.87-17.21,2.34-25.11-1.5-7.89-3.84-13.82-10.52-16.69-18.82-2.58-7.45-2.39-15.58.52-22.89,2.88-7.24,8.24-13.22,15.08-16.86.44-.24.77-.63.92-1.11.15-.48.1-.99-.14-1.43-.24-.44-.63-.77-1.11-.91-.18-.06-.37-.08-.55-.08Z"/>
      <path class="cls-2" d="M54.5,15.26c-.8,0-1.54-.5-1.82-1.29l-2.68-7.57c-.42-1.2.21-2.52,1.41-2.94l7.57-2.68c1.01-.35,2.11.17,2.47,1.18s-.17,2.11-1.18,2.47l-6.1,2.16,2.16,6.1c.36,1.01-.17,2.11-1.18,2.47-.21.08-.43.11-.64.11"/>
      <path class="cls-1" d="M11.99,34.71h0l-10.01-.03c-.53,0-.96-.44-.96-.97,0-.53.43-.96.97-.96h0l10.01.03c.53,0,.96.44.96.97,0,.53-.43.96-.97.96"/>
      <path class="cls-1" d="M11.99,34.76h0l-10.01-.03c-.27,0-.53-.11-.72-.3s-.3-.45-.3-.72c0-.56.46-1.02,1.02-1.02l10.01.03c.56,0,1.02.46,1.02,1.02,0,.56-.46,1.02-1.02,1.02ZM1.98,32.79c-.51,0-.91.41-.92.91,0,.24.09.47.27.65.17.17.4.27.64.27l10.01.03v.05s0-.05,0-.05c.5,0,.91-.41.91-.91,0-.24-.09-.47-.26-.65s-.4-.27-.64-.27l-10.01-.03Z"/>
      <path class="cls-2" d="M41.03,56.16h-8.61c-.61,0-1.1-.5-1.1-1.11V1.1c0-.61.5-1.1,1.1-1.1h8.61c.61,0,1.1.49,1.1,1.1v53.95c0,.61-.49,1.11-1.1,1.11M33.25,54.23h6.95V1.93h-6.95v52.3Z"/>
      <path class="cls-2" d="M41.17,23.5h0l-8.88-.03c-.53,0-.96-.44-.96-.97,0-.53.44-.96.97-.96h0l8.88.03c.53,0,.96.44.96.97,0,.53-.43.96-.97.96"/>
      <path class="cls-2" d="M40.85,19.98c-1.31,0-2.01-.44-2.57-.78-.46-.29-.8-.49-1.55-.49s-1.09.21-1.55.49c-.56.35-1.26.78-2.57.78-.53,0-.97-.43-.97-.97s.43-.97.97-.97c.75,0,1.09-.21,1.55-.49.56-.35,1.26-.78,2.57-.78s2.01.43,2.57.78c.46.29.8.49,1.55.49.53,0,.97.43.97.97s-.43.97-.97.97"/>
    </g>
  </g>
</svg>