<?xml version="1.0" encoding="UTF-8"?>
<svg id="Layer_2" data-name="Layer 2" xmlns="http://www.w3.org/2000/svg" viewBox="0 0 52.19 78.74">
  <defs>
    <style>
      .cls-1 {
        fill: #3d3942;
      }

      .cls-2 {
        fill: #41b9bb;
      }

      .cls-3 {
        fill: #37333e;
      }

      .cls-4 {
        fill: #40b9bb;
      }

      .cls-5 {
        fill: #49bcc5;
      }

      .cls-6 {
        fill: #4abcc3;
      }
    </style>
  </defs>
  <g id="artwork">
    <g>
      <path class="cls-3" d="M26.12,3.41c.76.88,9.05-1.95,9.73,2.69l-.16,54c-.51.96-1.23,2.06-2.45,2.04l-31.33-.09c-1.06-.62-1.88-1.71-1.92-2.97L.19,5.46c.53-3.45,9-1.38,9.57-2.04s-.01-2.82,2.69-3.21c1.78-.26,9.69-.29,11.31.06,2.33.51,1.88,2.61,2.35,3.15ZM31.8,7.52H4.09v50.53h27.71V7.52Z"/>
      <path class="cls-6" d="M48.1,24.23c-.08-.03-.22-.33-.62-.4-.49-.08-1.75.07-1.83,0-.15-.14-.14-3.93,0-4.08.12-.12,2.94-.06,3.45.02,1.61.23,2.94,1.36,3.1,3.02v52.2c.1,1.87-1.18,3.36-3.07,3.46-9.5-.76-20.45.97-29.77,0-1.84-.19-2.87-1.23-3.06-3.06-.05-.53-.11-3.36.01-3.48.14-.14,3.93-.14,4.08,0,.12.12-.09,1.94,0,2.45h27.71c.37,0,0-6.58,0-7.33l.4-.2-.4-.2c.01-1.76,0-3.54,0-5.3.69-.39.4-1.56.41-2.24.01-1.22.01-2.45,0-3.67,0-.68.28-1.85-.41-2.24,0-1.63,0-3.26,0-4.89.69-.39.4-1.56.41-2.24.01-1.22.01-2.45,0-3.67,0-.68.28-1.85-.41-2.24v-4.89c.69-.39.4-1.56.41-2.24.02-2.25-.17-4.73-.01-6.94.04-.51.55-1.69.42-1.82-.1-.1-.6.07-.82,0Z"/>
      <path class="cls-5" d="M11.52,65.68c.23.25.57.05.72.11.5.19.48.37,1.39.43,8.23.54,17.04-.47,25.34,0,.62.1.7-.14.98-.43.67-.67.67-3.99,0-4.89v-.81c.86-1.4.29-3.75.34-5.44l-.34-.26v-1.22c.86-1.4.29-3.75.34-5.44l-.34-.26v-1.22c.84-1.11.31-3.2.34-4.63l-.34-.26v-1.22c.69-.39.4-1.56.41-2.24.05-4.75.04-9.51,0-14.26,0-.68.28-1.85-.41-2.24v-1.22l.34-.26c.54-.88-.31-2-.34-2.19-.07-.48.11-1.93,0-2.04-.14-.15-2.3.15-2.45,0s-.14-3.93,0-4.08c.19-.19,3.48.05,4.09.19,1.31.32,2.18,1.33,2.43,2.66v52.97c-.21,1.73-1.35,2.69-3.04,2.87-9.32.97-20.28-.76-29.77,0-1.66-.17-2.08-.6-2.64-2.05-.11-1.18,1.29-1.04,1.82-2.07"/>
      <path class="cls-4" d="M39.95,40.12v-18.74c.69.39.4,1.56.41,2.24.04,4.75.05,9.51,0,14.26,0,.68.28,1.85-.41,2.24Z"/>
      <path class="cls-2" d="M48.1,24.23c.22.07.72-.09.82,0,.13.13-.38,1.31-.42,1.82-.16,2.2.03,4.69.01,6.94,0,.68.28,1.85-.41,2.24v-11Z"/>
      <path class="cls-2" d="M48.1,48.27v-8.15c.69.39.4,1.56.41,2.24.01,1.22.01,2.45,0,3.67,0,.68.28,1.85-.41,2.24Z"/>
      <path class="cls-2" d="M48.1,61.31c0-2.71,0-5.44,0-8.15.69.39.4,1.56.41,2.24.01,1.22.01,2.45,0,3.67,0,.68.28,1.85-.41,2.24Z"/>
      <path class="cls-4" d="M39.95,53.16v-5.7l.34.26c-.05,1.69.52,4.05-.34,5.44Z"/>
      <path class="cls-4" d="M39.95,60.08v-5.7l.34.26c-.05,1.69.52,4.05-.34,5.44Z"/>
      <path class="cls-4" d="M39.95,46.23v-4.89l.34.26c-.03,1.42.5,3.51-.34,4.63Z"/>
      <path class="cls-4" d="M39.95,65.79v-4.89c.67.89.67,4.22,0,4.89Z"/>
      <path class="cls-4" d="M39.95,20.15v-2.44c.03.19.88,1.3.34,2.19l-.34.26Z"/>
      <path class="cls-1" d="M18.35,31.97h7.74l-10.39,14.26c-1.05.08-.45-.15-.3-.71.78-3.04,1.58-6.09,2.55-9.07h-8.15c-.08-.72.52-1.19.89-1.76.75-1.15,1.76-2.39,2.6-3.51,2.32-3.07,4.78-6.12,7.3-9,.52.26.02,1.12-.08,1.55-.64,2.76-1.56,5.46-2.16,8.23Z"/>
    </g>
  </g>
</svg>