<?xml version="1.0" encoding="UTF-8"?>
<svg id="Layer_2" data-name="Layer 2" xmlns="http://www.w3.org/2000/svg" viewBox="0 0 51.76 73.87">
  <defs>
    <style>
      .cls-1 {
        fill: #192546;
      }

      .cls-2 {
        fill: #29b8ce;
      }
    </style>
  </defs>
  <g id="artwork">
    <g>
      <path class="cls-1" d="M25.88,73.87c-14.27,0-25.88-11.61-25.88-25.88v-22.11C0,11.61,11.61,0,25.88,0s25.88,11.61,25.88,25.88v22.11c0,14.27-11.61,25.88-25.88,25.88ZM25.88.11C11.67.11.11,11.67.11,25.88v22.11c0,14.21,11.56,25.77,25.77,25.77s25.78-11.56,25.78-25.77v-22.11C51.66,11.67,40.09.11,25.88.11ZM25.88,70.01c-12.14,0-22.02-9.88-22.02-22.02v-22.11C3.87,13.74,13.74,3.86,25.88,3.86s22.02,9.88,22.02,22.02v22.11c0,12.14-9.88,22.02-22.02,22.02ZM25.88,3.97C13.8,3.97,3.97,13.8,3.97,25.88v22.11c0,12.08,9.83,21.91,21.91,21.91s21.91-9.83,21.91-21.91v-22.11c0-12.08-9.83-21.91-21.91-21.91Z"/>
      <g>
        <path class="cls-1" d="M25.88,73.82C11.64,73.82.05,62.23.05,47.99v-22.11C.05,11.64,11.64.05,25.88.05s25.83,11.59,25.83,25.83v22.11c0,14.24-11.59,25.83-25.83,25.83M25.88,3.92C13.77,3.92,3.92,13.77,3.92,25.88v22.11c0,12.11,9.85,21.96,21.96,21.96s21.96-9.85,21.96-21.96v-22.11c0-12.11-9.85-21.96-21.96-21.96"/>
        <path class="cls-2" d="M15.33,50.25c-1.07,0-1.93-.87-1.93-1.93v-22.62c0-1.07.87-1.93,1.93-1.93s1.93.87,1.93,1.93v22.62c0,1.07-.87,1.93-1.93,1.93"/>
        <path class="cls-2" d="M36.43,50.25c-1.07,0-1.93-.87-1.93-1.93v-22.62c0-1.07.87-1.93,1.93-1.93s1.93.87,1.93,1.93v22.62c0,1.07-.87,1.93-1.93,1.93"/>
      </g>
    </g>
  </g>
</svg>