<svg xmlns="http://www.w3.org/2000/svg" xmlns:xlink="http://www.w3.org/1999/xlink" xml:space="preserve" version="1.1" style="shape-rendering:geometricPrecision;text-rendering:geometricPrecision;image-rendering:optimizeQuality;" viewBox="0 0 333.33 416.66249999999997" x="0px" y="0px" fill-rule="evenodd" clip-rule="evenodd"><defs><style type="text/css">
   
    .fil0 {fill:black}
   
  </style></defs><g><path class="fil0" d="M151.32 48.2l42.41 24.48 36.07 20.82 -78.48 45.31 -78.48 -45.31 36.07 -20.82 42.41 -24.48zm125.91 88.57l0.02 -0.02 0.09 -0.1 0 0c0.28,-0.32 0.6,-0.62 0.94,-0.88l0 0 0.04 -0.03 0.09 -0.07c0.09,-0.06 0.18,-0.12 0.27,-0.18l0.09 -0.05 0.05 -0.03 0.01 -0.01c0.09,-0.05 0.18,-0.1 0.27,-0.15l0.02 -0.01 0.12 -0.06 0 0 0.12 -0.06 0.02 -0.01 0.15 -0.07 0.08 -0.04 0.06 -0.03 0.14 -0.05 0.01 -0 0.05 -0.02 0.1 -0.04 0.15 -0.05 0.01 -0c0.9,-0.3 1.89,-0.4 2.89,-0.26l36.78 5.22c3.48,0.5 5.89,3.72 5.4,7.19 -0.5,3.48 -3.71,5.89 -7.19,5.4l-22.68 -3.22c1.93,3.48 3.58,7.06 4.95,10.72 2.97,7.98 4.55,16.3 4.55,24.82 0,28.25 -16.98,53.63 -44.45,71.83 -26.69,17.69 -63.44,28.63 -103.91,28.63 -40.47,0 -77.22,-10.94 -103.91,-28.63 -27.46,-18.2 -44.45,-43.58 -44.45,-71.83 0,-8.52 1.58,-16.83 4.55,-24.82 3.03,-8.13 7.48,-15.83 13.17,-22.97 2.18,-2.74 6.18,-3.2 8.93,-1.02 2.74,2.19 3.2,6.19 1.02,8.93 -4.89,6.15 -8.7,12.69 -11.23,19.49 -2.42,6.5 -3.71,13.33 -3.71,20.39 0,23.72 14.8,45.38 38.73,61.24 24.7,16.36 58.95,26.49 96.89,26.49 37.95,0 72.2,-10.13 96.89,-26.49 23.93,-15.85 38.73,-37.52 38.73,-61.24 0,-7.06 -1.29,-13.89 -3.71,-20.39 -1.29,-3.47 -2.92,-6.87 -4.85,-10.19l-8.82 21.45c-1.33,3.24 -5.04,4.79 -8.28,3.46 -3.24,-1.33 -4.79,-5.04 -3.46,-8.28l13.15 -31.95c0.26,-0.74 0.64,-1.42 1.13,-2zm-41.09 -32.28l0 41.65 0 48.97 -42.41 24.48 -36.04 20.81 0 -90.62 78.45 -45.29zm-91.19 135.91l-36.04 -20.81 -42.41 -24.48 0 -48.97 0 -41.65 78.45 45.29 0 90.62z"/></g><text x="0" y="348.33" fill="#000000" font-size="5px" font-weight="bold" font-family="'Helvetica Neue', Helvetica, Arial-Unicode, Arial, Sans-serif">Created by YANDI RS</text><text x="0" y="353.33" fill="#000000" font-size="5px" font-weight="bold" font-family="'Helvetica Neue', Helvetica, Arial-Unicode, Arial, Sans-serif">from the Noun Project</text></svg>